<svg width="116" height="116" viewBox="0 0 116 116" fill="none" xmlns="http://www.w3.org/2000/svg">
<g clip-path="url(#clip0_24_533)">
<rect width="360" height="800" transform="translate(-122 -115)" fill="white"/>
<path d="M57.9922 48.8413C59.5951 48.8413 61.1324 48.198 62.2658 47.0529C63.3993 45.9078 64.036 44.3548 64.036 42.7354C64.036 41.1161 63.3993 39.563 62.2658 38.418C61.1324 37.2729 59.5951 36.6296 57.9922 36.6296C56.3892 36.6296 54.852 37.2729 53.7185 38.418C52.5851 39.563 51.9483 41.1161 51.9483 42.7354C51.9483 44.3548 52.5851 45.9078 53.7185 47.0529C54.852 48.198 56.3892 48.8413 57.9922 48.8413V48.8413Z" fill="#51B9A5"/>
<path d="M33.8194 42.7355C41.3742 42.7355 47.4154 45.7884 57.9922 55.0236C68.5689 45.7884 74.6127 42.7381 82.1675 42.7381C70.0799 53.4206 65.547 61.0529 57.9922 88.5265C50.44 61.0529 45.9071 53.3152 33.8194 42.7355Z" fill="#51B9A5"/>
<path d="M57.9922 0C50.4348 8.25446 49.7302 14.5712 57.238 24.4206H57.3215C57.2693 23.2765 57.238 21.9794 57.238 20.6058C57.238 15.9685 57.5773 12.2116 57.9948 12.2116C58.4123 12.2116 58.749 15.9685 58.749 20.6058C58.749 21.9794 58.7203 23.2765 58.6655 24.4206H58.749C66.6717 14.3023 65.0981 8.54973 57.9922 0Z" fill="url(#paint0_radial_24_533)"/>
<path d="M57.9922 116C50.4348 107.746 49.7302 101.429 57.238 91.5794H57.3215C57.2693 92.7235 57.238 94.0206 57.238 95.3942C57.238 100.032 57.5773 103.788 57.9948 103.788C58.4123 103.788 58.749 100.032 58.749 95.3942C58.749 94.0206 58.7203 92.7235 58.6655 91.5794H58.749C66.6717 101.698 65.0981 107.45 57.9922 116Z" fill="url(#paint1_radial_24_533)"/>
<path d="M8 87.7066C11.2959 76.966 16.3586 73.1908 28.5558 74.8358L28.5976 74.907C27.5903 75.4343 26.4629 76.0565 25.2834 76.7446C21.3116 79.0619 18.2584 81.2369 18.4671 81.6008C18.6759 81.9672 22.0684 80.3828 26.0402 78.0654C27.2171 77.3799 28.3158 76.7024 29.2709 76.0855L29.3126 76.1567C24.5997 88.1495 18.882 89.6469 8 87.7066Z" fill="url(#paint2_radial_24_533)"/>
<path d="M8.00261 29.7119C11.3011 40.4524 16.3638 44.2277 28.5611 42.5826L28.6028 42.5114C27.4851 41.924 26.3801 41.3123 25.2886 40.6765C21.3142 38.3565 18.2636 36.1815 18.4723 35.8177C18.6811 35.4512 22.071 37.0357 26.0454 39.353C27.2223 40.0411 28.321 40.716 29.2761 41.3329L29.3152 41.2618C24.6049 29.2689 18.8873 27.7715 8.00261 29.7145V29.7119Z" fill="url(#paint3_radial_24_533)"/>
<path d="M107.93 87.7066C104.634 76.966 99.571 73.1908 87.3737 74.8358L87.3319 74.907C88.3392 75.4343 89.4666 76.0565 90.6461 76.7446C94.618 79.0619 97.6712 81.2369 97.4624 81.6008C97.2537 81.9672 93.8612 80.3828 89.8893 78.0654C88.7098 77.3799 87.6138 76.7024 86.6587 76.0855L86.6169 76.1567C91.3299 88.1495 97.0449 89.6469 107.93 87.7066V87.7066Z" fill="url(#paint4_radial_24_533)"/>
<path d="M108 29.7119C104.704 40.4524 99.6415 44.2277 87.4442 42.5826L87.4024 42.5114C88.4097 41.9841 89.5371 41.3619 90.7166 40.6765C94.6884 38.3565 97.7417 36.1815 97.5329 35.8177C97.3241 35.4512 93.9343 37.0357 89.9598 39.353C88.7829 40.0411 87.6843 40.716 86.7291 41.3329L86.6874 41.2618C91.4003 29.2689 97.118 27.7715 108 29.7145V29.7119Z" fill="url(#paint5_radial_24_533)"/>
<path d="M42.0292 28.8576C43.0522 21.1146 40.7036 17.9009 34.023 15.8076C32.8147 22.7149 33.7464 26.3452 41.2072 29.3375L41.2516 29.3111C40.8654 28.7047 40.4478 28.0087 40.0198 27.2626C38.5767 24.737 37.5929 22.5857 37.82 22.4539C38.047 22.3221 39.4014 24.2598 40.8419 26.7828C41.2698 27.5289 41.6561 28.246 41.9849 28.884L42.0292 28.8576V28.8576Z" fill="url(#paint6_radial_24_533)"/>
<path d="M75.5079 29.3427C82.6582 26.3636 84.2396 22.7017 82.6921 15.8102C76.1655 18.2093 73.5193 20.8378 74.6858 28.8602L74.7302 28.8866C75.0564 28.246 75.4452 27.5315 75.8732 26.7828C77.3137 24.2598 78.6655 22.322 78.8951 22.4539C79.1222 22.5857 78.1383 24.7396 76.6952 27.2626C76.3002 27.9557 75.8895 28.6396 75.4635 29.3137L75.5079 29.34V29.3427Z" fill="url(#paint7_radial_24_533)"/>
<path d="M91.8335 57.9077C97.9608 53.1412 101.891 53.5894 107.027 58.3875C101.706 62.901 98.1279 63.8975 91.8335 58.8674V58.8146C92.5459 58.8489 93.3523 58.8674 94.2082 58.8674C97.0918 58.8674 99.4301 58.6538 99.4301 58.3875C99.4301 58.1239 97.0918 57.9077 94.2082 57.9077C93.3523 57.9077 92.5459 57.9288 91.8335 57.9605V57.9077Z" fill="url(#paint8_radial_24_533)"/>
<path d="M82.6921 100.973C84.2396 94.0786 82.6582 90.4167 75.5079 87.4402L75.4635 87.4666C75.8471 88.0729 76.2672 88.7689 76.6952 89.5177C78.1357 92.0407 79.1222 94.1919 78.8951 94.3264C78.6681 94.4582 77.3137 92.5205 75.8732 89.9975C75.4762 89.3052 75.0951 88.6037 74.7302 87.8937L74.6858 87.92C73.5193 95.9425 76.1655 98.5709 82.6921 100.97V100.973Z" fill="url(#paint9_radial_24_533)"/>
<path d="M24.8763 57.9077C18.749 53.1412 14.8215 53.5894 9.68581 58.3875C15.0042 62.901 18.5819 63.8975 24.8763 58.8674V58.8146C24.1639 58.8489 23.3575 58.8674 22.5016 58.8674C19.618 58.8674 17.2824 58.6538 17.2824 58.3875C17.2824 58.1239 19.618 57.9077 22.5016 57.9077C23.3575 57.9077 24.1639 57.9288 24.8763 57.9605V57.9077Z" fill="url(#paint10_radial_24_533)"/>
<path d="M34.023 100.973C40.7036 98.8795 43.0522 95.6657 42.0292 87.9227L41.9849 87.8964C41.6561 88.5344 41.2698 89.2488 40.8419 89.9976C39.3988 92.5206 38.047 94.4609 37.82 94.3265C37.5929 94.1947 38.5767 92.0408 40.0198 89.5178C40.4478 88.7717 40.868 88.0757 41.2516 87.4693L41.2072 87.4429C33.7464 90.4326 32.8147 94.0628 34.023 100.973Z" fill="url(#paint11_radial_24_533)"/>
</g>
<defs>
<radialGradient id="paint0_radial_24_533" cx="0" cy="0" r="1" gradientUnits="userSpaceOnUse" gradientTransform="translate(57.9922 58) rotate(90) scale(58 61.0916)">
<stop offset="0.579" stop-color="#51B9A5"/>
<stop offset="1" stop-color="#4B61A8"/>
</radialGradient>
<radialGradient id="paint1_radial_24_533" cx="0" cy="0" r="1" gradientUnits="userSpaceOnUse" gradientTransform="translate(57.9922 58) rotate(90) scale(58 61.0916)">
<stop offset="0.579" stop-color="#51B9A5"/>
<stop offset="1" stop-color="#4B61A8"/>
</radialGradient>
<radialGradient id="paint2_radial_24_533" cx="0" cy="0" r="1" gradientUnits="userSpaceOnUse" gradientTransform="translate(57.9922 58) rotate(90) scale(58 61.0916)">
<stop offset="0.579" stop-color="#51B9A5"/>
<stop offset="1" stop-color="#4B61A8"/>
</radialGradient>
<radialGradient id="paint3_radial_24_533" cx="0" cy="0" r="1" gradientUnits="userSpaceOnUse" gradientTransform="translate(57.9922 58) rotate(90) scale(58 61.0916)">
<stop offset="0.579" stop-color="#51B9A5"/>
<stop offset="1" stop-color="#4B61A8"/>
</radialGradient>
<radialGradient id="paint4_radial_24_533" cx="0" cy="0" r="1" gradientUnits="userSpaceOnUse" gradientTransform="translate(57.9922 58) rotate(90) scale(58 61.0916)">
<stop offset="0.579" stop-color="#51B9A5"/>
<stop offset="1" stop-color="#4B61A8"/>
</radialGradient>
<radialGradient id="paint5_radial_24_533" cx="0" cy="0" r="1" gradientUnits="userSpaceOnUse" gradientTransform="translate(57.9922 58) rotate(90) scale(58 61.0916)">
<stop offset="0.579" stop-color="#51B9A5"/>
<stop offset="1" stop-color="#4B61A8"/>
</radialGradient>
<radialGradient id="paint6_radial_24_533" cx="0" cy="0" r="1" gradientUnits="userSpaceOnUse" gradientTransform="translate(57.9922 58) rotate(90) scale(58 61.0916)">
<stop offset="0.579" stop-color="#51B9A5"/>
<stop offset="1" stop-color="#4B61A8"/>
</radialGradient>
<radialGradient id="paint7_radial_24_533" cx="0" cy="0" r="1" gradientUnits="userSpaceOnUse" gradientTransform="translate(57.9922 58) rotate(90) scale(58 61.0916)">
<stop offset="0.579" stop-color="#51B9A5"/>
<stop offset="1" stop-color="#4B61A8"/>
</radialGradient>
<radialGradient id="paint8_radial_24_533" cx="0" cy="0" r="1" gradientUnits="userSpaceOnUse" gradientTransform="translate(57.9921 58) rotate(90) scale(58 61.0916)">
<stop offset="0.579" stop-color="#51B9A5"/>
<stop offset="1" stop-color="#4B61A8"/>
</radialGradient>
<radialGradient id="paint9_radial_24_533" cx="0" cy="0" r="1" gradientUnits="userSpaceOnUse" gradientTransform="translate(57.9922 57.9999) rotate(90) scale(58 61.0916)">
<stop offset="0.579" stop-color="#51B9A5"/>
<stop offset="1" stop-color="#4B61A8"/>
</radialGradient>
<radialGradient id="paint10_radial_24_533" cx="0" cy="0" r="1" gradientUnits="userSpaceOnUse" gradientTransform="translate(57.9922 58) rotate(90) scale(58 61.0916)">
<stop offset="0.579" stop-color="#51B9A5"/>
<stop offset="1" stop-color="#4B61A8"/>
</radialGradient>
<radialGradient id="paint11_radial_24_533" cx="0" cy="0" r="1" gradientUnits="userSpaceOnUse" gradientTransform="translate(57.9922 58) rotate(90) scale(58 61.0916)">
<stop offset="0.579" stop-color="#51B9A5"/>
<stop offset="1" stop-color="#4B61A8"/>
</radialGradient>
<clipPath id="clip0_24_533">
<rect width="360" height="800" fill="white" transform="translate(-122 -115)"/>
</clipPath>
</defs>
</svg>
