<svg width="24" height="24" viewBox="0 0 24 24" fill="none" xmlns="http://www.w3.org/2000/svg">
<path d="M17.8388 9.11628V17.445C17.8388 18.2138 17.2163 18.8438 16.44 18.8438H8.64L3.62625 23.625V18.8438H1.77375C1.00125 18.8438 0.375 18.2138 0.375 17.445V9.11628C0.375 8.34753 0.9975 7.71753 1.77375 7.71753H16.4438C17.2163 7.72128 17.8388 8.34753 17.8388 9.11628Z" fill="#443E3E"/>
<g opacity="0.3">
<path d="M16.44 7.72125H4.54875V10.005C4.54875 13.5038 7.38375 16.3388 10.8825 16.3388H17.835V9.11625C17.8388 8.3475 17.2163 7.72125 16.44 7.72125Z" fill="white"/>
</g>
<path d="M4.55624 1.90125V10.995C4.55624 11.835 5.23874 12.5212 6.08249 12.5212H14.6025L20.0775 17.7413V12.5212H22.1025C22.9462 12.5212 23.6287 11.835 23.6287 10.995V1.90125C23.625 1.06125 22.9425 0.375 22.0987 0.375H6.08249C5.23874 0.375 4.55624 1.06125 4.55624 1.90125Z" fill="#B1B1B1"/>
<g opacity="0.3">
<path d="M22.0987 0.375H9.10875V3.2775C9.10875 6.21375 11.49 8.59875 14.43 8.59875H23.625V1.90125C23.625 1.06125 22.9425 0.375 22.0987 0.375Z" fill="white"/>
</g>
<g opacity="0.3">
<path d="M21.9863 3.54375V5.475C21.9863 6.37875 22.7213 7.11375 23.625 7.11375V1.90125C23.625 1.0575 22.9425 0.375 22.0988 0.375H11.3288V0.37875C11.3288 1.2825 12.0638 2.0175 12.9675 2.0175H20.4638C21.3038 2.0175 21.9863 2.7 21.9863 3.54375Z" fill="white"/>
</g>
<path d="M20.745 3.71252H7.66875C7.4625 3.71252 7.29375 3.54377 7.29375 3.33752C7.29375 3.13127 7.4625 2.96252 7.66875 2.96252H20.745C20.9512 2.96252 21.12 3.13127 21.12 3.33752C21.12 3.54377 20.9512 3.71252 20.745 3.71252Z" fill="#443E3E"/>
<path d="M20.745 6.82501H7.66875C7.4625 6.82501 7.29375 6.65626 7.29375 6.45001C7.29375 6.24376 7.4625 6.07501 7.66875 6.07501H20.745C20.9512 6.07501 21.12 6.24376 21.12 6.45001C21.12 6.65626 20.9512 6.82501 20.745 6.82501Z" fill="#443E3E"/>
<path d="M20.745 9.9375H7.66875C7.4625 9.9375 7.29375 9.76875 7.29375 9.5625C7.29375 9.35625 7.4625 9.1875 7.66875 9.1875H20.745C20.9512 9.1875 21.12 9.35625 21.12 9.5625C21.12 9.76875 20.9512 9.9375 20.745 9.9375Z" fill="#443E3E"/>
</svg>
