<svg width="24" height="24" viewBox="0 0 24 24" fill="none" xmlns="http://www.w3.org/2000/svg">
<path d="M23.2 9.39996V21C23.2 22.3252 21.3252 23.4 20 23.4H3.19999C2.56347 23.4 1.95302 23.1471 1.50293 22.697C1.05285 22.247 0.799988 21.6365 0.799988 21V9.39996H23.2Z" fill="#999999"/>
<path d="M15.6 4.59998C15.4939 4.59998 15.3922 4.55783 15.3172 4.48282C15.2421 4.4078 15.2 4.30606 15.2 4.19998V2.59998C15.2 2.28171 15.0735 1.97649 14.8485 1.75145C14.6235 1.5264 14.3182 1.39998 14 1.39998H10C9.68176 1.39998 9.37653 1.5264 9.15147 1.75145C8.92645 1.97649 8.8 2.28171 8.8 2.59998V4.19998C8.8 4.30606 8.75787 4.4078 8.68283 4.48282C8.60784 4.55783 8.50608 4.59998 8.4 4.59998C8.29392 4.59998 8.19216 4.55783 8.11717 4.48282C8.04213 4.4078 8 4.30606 8 4.19998V2.59998C8.00064 2.06974 8.21157 1.5614 8.58651 1.18646C8.96144 0.811528 9.46976 0.60061 10 0.599976H14C14.5302 0.60061 15.0386 0.811528 15.4135 1.18646C15.7884 1.5614 15.9994 2.06974 16 2.59998V4.19998C16 4.30606 15.9579 4.4078 15.8828 4.48282C15.8078 4.55783 15.7061 4.59998 15.6 4.59998Z" fill="#999999"/>
<path d="M16.4 15H13.2V11.8H10.8V15H7.60001V17.4H10.8V20.6H13.2V17.4H16.4V15Z" fill="white"/>
<path opacity="0.15" d="M10.8 17.4H7.60002V15L0.903625 21.6964C1.05303 22.1891 1.35693 22.6207 1.77044 22.9275C2.18395 23.2343 2.68515 23.3999 3.20003 23.4H10.4L13.2 20.6H10.8V17.4ZM10.8 11.8L7.60002 15H10.8V11.8ZM13.2 20.6L16.4 17.4H13.2V20.6Z" fill="black"/>
<path d="M23.6 9.39995C23.7061 9.39995 23.8078 9.35782 23.8828 9.28278C23.9579 9.20779 24 9.10603 24 8.99995V5.79995C24 5.37563 23.8314 4.96864 23.5314 4.66858C23.2313 4.36852 22.8244 4.19995 22.4 4.19995H1.6C1.17565 4.19995 0.768688 4.36852 0.468629 4.66858C0.168571 4.96864 0 5.37563 0 5.79995V8.99995C0 9.10603 0.042144 9.20779 0.117157 9.28278C0.192171 9.35782 0.293915 9.39995 0.4 9.39995H23.6Z" fill="#EEEEEE"/>
<path opacity="0.15" d="M5.4984 10.864L3.2928 7.94397L2.12 9.114C2.08186 9.15117 2.05158 9.19565 2.03097 9.24482C2.01035 9.29394 1.99982 9.34669 2 9.39997V11.8C2 11.906 2.04215 12.0078 2.11716 12.0828C2.19218 12.1578 2.29392 12.2 2.4 12.2H4C4.05729 12.1994 4.11378 12.1864 4.16552 12.1618C4.21727 12.1372 4.26302 12.1017 4.2996 12.0576L4.3024 12.0604L5.4984 10.864ZM20.8 10.864L18.5944 7.94397L17.4232 9.11517C17.3852 9.15229 17.3549 9.19666 17.3343 9.24562C17.3137 9.29464 17.3031 9.34722 17.3032 9.4004V11.8004C17.3032 11.8529 17.3135 11.9049 17.3337 11.9535C17.3538 12.002 17.3832 12.0461 17.4204 12.0832C17.4575 12.1203 17.5016 12.1498 17.5501 12.1699C17.5987 12.19 17.6507 12.2004 17.7032 12.2004H19.3032C19.3601 12.1994 19.416 12.1862 19.4673 12.1615C19.5185 12.1368 19.5638 12.1014 19.6 12.0576L19.6028 12.0604L20.8 10.864Z" fill="#443E3E"/>
<path d="M5.20001 7.79999H3.60001C3.3791 7.79999 3.20001 7.97908 3.20001 8.19999V10.6C3.20001 10.8209 3.3791 11 3.60001 11H5.20001C5.42092 11 5.60001 10.8209 5.60001 10.6V8.19999C5.60001 7.97908 5.42092 7.79999 5.20001 7.79999Z" fill="#CCCCCC"/>
<path d="M20.4 7.79999H18.8C18.5791 7.79999 18.4 7.97908 18.4 8.19999V10.6C18.4 10.8209 18.5791 11 18.8 11H20.4C20.6209 11 20.8 10.8209 20.8 10.6V8.19999C20.8 7.97908 20.6209 7.79999 20.4 7.79999Z" fill="#CCCCCC"/>
</svg>
