<svg width="24" height="24" viewBox="0 0 24 24" fill="none" xmlns="http://www.w3.org/2000/svg">
<path d="M17.6394 2.51843L4.87038 7.96878L8.51362 15L14.5151 15.5L19.4051 7.26565C19.4051 5.45098 18.7396 3.79175 17.6394 2.51843Z" fill="#CCCCCC"/>
<path d="M19.4051 7.26565C19.4051 5.45098 18.7396 3.79175 17.6394 2.51843L12.1377 4.86673L12.0145 16L15.5153 15.5L19.4051 7.26565Z" fill="#656363"/>
<path d="M19.0298 19.6C17.2178 19.24 16.1832 18.8265 15.5891 18.4081L11.9984 21.5968L8.40931 18.4081C7.81676 18.8265 6.78258 19.2404 4.96862 19.6C5.08728e-07 20.586 0 23.9999 0 23.9999H24C24 23.9999 24 20.586 19.0298 19.6Z" fill="#CCCCCC"/>
<path d="M17.1986 10.3733V9.20052C15.9984 8.80054 14.3981 6.40063 14.3981 6.40063H9.59711C9.59711 6.40063 7.99679 8.80054 6.79655 9.20052V10.3733C6.79655 12.95 7.6603 15.2295 9.20461 16.5058L9.19703 16.5114V16.8002C9.23203 17.1159 9.17596 17.4351 9.03546 17.72C8.89495 18.0049 8.67586 18.2437 8.40408 18.4081L11.9976 21.6L15.5911 18.4089C15.3192 18.2444 15.1 18.0055 14.9595 17.7204C14.819 17.4354 14.763 17.116 14.7982 16.8002V16.5114L14.7905 16.5055C16.3345 15.2295 17.1986 12.95 17.1986 10.3733Z" fill="white"/>
<path d="M17.4225 19.2098C16.7736 19.0417 16.1556 18.7717 15.5914 18.4099L12.0007 21.5985L15.1985 24L17.4357 19.2162L17.4225 19.2098ZM6.57835 19.2098C7.22728 19.0417 7.84533 18.7717 8.40955 18.4099L12.0002 21.5985L8.802 24L6.56475 19.2162L6.57835 19.2098Z" fill="#443E3E"/>
<path opacity="0.15" d="M11.9976 17.7114V0.000915527L10.0771 0.698532C9.31334 0.698532 8.7032 1.06481 7.9968 1.60085C8.0072 1.70845 8.0248 1.84764 8.04561 2.00083C8.04561 2.00083 8.07488 1.67286 7.06983 2.31625C6.06477 2.95964 6.20663 3.53227 5.63873 4.58169C5.07088 5.63109 4.77888 6.80752 4.79018 8.00059C4.79018 8.00059 5.61427 9.17617 6.01301 10C6.55044 11.1104 7.00169 10.5 7.00169 13C7.50181 15 9.19704 16.5114 9.19704 16.5114V16.8002C9.23203 17.116 9.17597 17.4351 9.03546 17.72C8.89495 18.0049 8.67592 18.2437 8.40408 18.4082L8.40648 18.4106C7.81319 18.8282 6.77938 19.2401 4.97059 19.6001C0 20.5861 0 23.9999 0 23.9999H7.30749L14.7982 16.5114C14.7982 16.5114 13.3731 17.7114 11.9976 17.7114Z" fill="#999999"/>
<path d="M13.9026 6.55496C15.6501 5.62435 16.9088 4.33955 17.5423 2.83945C17.582 2.73384 17.6142 2.62659 17.6393 2.51841C16.3067 0.976079 14.3363 0 12.1378 0C8.1241 0 4.87038 3.25294 4.87038 7.26563V7.96875H7.91799C10.0963 7.96875 12.1657 7.47989 13.9026 6.55496Z" fill="#CCCCCC"/>
<path d="M12.1377 0V7.30777C12.7552 7.10269 13.3461 6.85135 13.9025 6.55496C15.6501 5.62435 16.9088 4.33955 17.5423 2.83945C17.582 2.73384 17.6142 2.62659 17.6393 2.51841C16.3067 0.976079 14.3363 0 12.1377 0Z" fill="#999999"/>
</svg>
