<svg width="24" height="24" viewBox="0 0 24 24" fill="none" xmlns="http://www.w3.org/2000/svg">
<path d="M12 24C18.6274 24 24 18.6274 24 12C24 5.37259 18.6274 0 12 0C5.37259 0 0 5.37259 0 12C0 18.6274 5.37259 24 12 24Z" fill="#EEEEEE"/>
<g opacity="0.15">
<path d="M11.9356 20C10.3844 20.0026 8.86597 19.5534 7.56587 18.7072C6.26576 17.861 5.24016 16.6546 4.61445 15.2352C3.98871 13.8158 3.78988 12.2448 4.04226 10.7143C4.29464 9.18371 4.98731 7.75976 6.03557 6.6164C7.53995 5.23491 9.51728 4.48373 11.5595 4.51789C13.6016 4.55208 15.5527 5.36899 17.01 6.79997H15.5896C15.5251 6.80083 15.4618 6.81757 15.4053 6.84867C15.3488 6.87981 15.3008 6.92435 15.2656 6.97837L15.2628 6.97L14.8152 7.41677C14.8009 7.42915 14.7875 7.44248 14.7752 7.45677L14.7512 7.4804L14.7564 7.4844C14.7058 7.55069 14.6778 7.63144 14.6764 7.7148C14.6764 7.82088 14.7186 7.92264 14.7935 7.99763C14.8686 8.07267 14.9703 8.1148 15.0764 8.1148H18.2764C18.381 8.11459 18.4814 8.07336 18.556 7.99997L19.0728 7.48317C19.1099 7.446 19.1394 7.40179 19.1594 7.3532C19.1794 7.30461 19.1897 7.25256 19.1896 7.19997L19.1804 3.91079C19.1804 3.80471 19.1382 3.70296 19.0633 3.62795C18.9882 3.55294 18.8865 3.51079 18.7804 3.51079C18.7263 3.51111 18.6728 3.52241 18.6232 3.54399L18.5032 3.62399L18.5008 3.62639L18.4984 3.62879L18.0184 4.11279L18.0236 4.11559C17.9746 4.15159 17.9347 4.19847 17.9069 4.25255C17.8791 4.30662 17.8643 4.36641 17.8636 4.42719L17.8668 5.5044C16.15 3.93219 13.8793 3.10592 11.5536 3.20717C9.22795 3.30843 7.0376 4.32893 5.464 6.0444C4.15937 7.24296 3.24712 8.80765 2.84672 10.5334C2.44631 12.2592 2.57643 14.0657 3.22002 15.7163C3.86362 17.3669 4.99067 18.7847 6.4536 19.7839C7.91659 20.7831 9.64715 21.3173 11.4188 21.3164C11.4768 21.3159 11.534 21.3026 11.5863 21.2775C11.6386 21.2523 11.6846 21.2159 11.7212 21.1708V21.1756L12.2116 20.6864L12.22 20.678L12.234 20.664H12.2288C12.2959 20.5923 12.334 20.4982 12.3356 20.4C12.3356 20.2939 12.2934 20.1922 12.2185 20.1171C12.1434 20.0422 12.0417 20 11.9356 20ZM15.7832 19.016C15.1333 19.3726 14.4367 19.6365 13.7136 19.8C13.6477 19.8166 13.5873 19.8501 13.5384 19.8972L13.5352 19.892L12.9852 20.4432L12.9912 20.4464C12.9483 20.4926 12.9172 20.5483 12.9004 20.609C12.8837 20.6697 12.8817 20.7336 12.8948 20.7952C12.9148 20.8837 12.9644 20.9627 13.0352 21.0193C13.1061 21.0759 13.1941 21.1067 13.2848 21.1068C13.3147 21.1069 13.3444 21.1037 13.3736 21.0972C14.1703 20.9168 14.9378 20.6256 15.6536 20.232C15.6821 20.2137 15.7081 20.1918 15.7308 20.1668L15.734 20.1736L16.28 19.6252H16.2768C16.3355 19.5539 16.3677 19.4647 16.368 19.3723C16.3683 19.2801 16.3367 19.1905 16.2786 19.1189C16.2205 19.0472 16.1394 18.9979 16.049 18.9792C15.9586 18.9606 15.8646 18.9737 15.7828 19.0164L15.7832 19.016Z" fill="#443E3E"/>
<path d="M20.0797 14.1108C20.0094 14.0899 19.9347 14.0887 19.8637 14.1074C19.7927 14.1261 19.7282 14.1639 19.6773 14.2168V14.2124L19.6645 14.2252L19.1978 14.692L19.2069 14.6968C19.1397 14.7446 19.0894 14.8126 19.0634 14.8908C18.9386 15.2928 18.7819 15.6841 18.5949 16.0612C18.5499 16.1536 18.5422 16.2598 18.5734 16.3577C18.6046 16.4557 18.6724 16.5379 18.7626 16.5872C18.6685 16.5736 17.9589 17.8596 17.9338 17.894C17.7637 18.1248 16.9338 18.2632 16.9138 18.294V18.2844L16.517 18.6812C16.501 18.6944 16.4861 18.7088 16.4701 18.7212C16.46 18.7323 16.4505 18.7439 16.4418 18.756L16.4101 18.7876H16.4162C16.3587 18.8576 16.327 18.9452 16.3265 19.0357C16.3259 19.1262 16.3564 19.2141 16.413 19.2848C16.4461 19.3256 16.487 19.3593 16.5332 19.3843C16.5795 19.4093 16.6301 19.4248 16.6824 19.4302C16.7347 19.4356 16.7875 19.4305 16.8378 19.4155C16.8882 19.4004 16.935 19.3756 16.9757 19.3424C17.2966 19.0797 17.5985 18.7948 17.8794 18.4896C18.3025 18.1028 18.6869 17.6757 19.0274 17.2144C19.0586 17.1721 19.0812 17.124 19.0939 17.073C19.1066 17.0219 19.109 16.9688 19.1011 16.9168C19.0932 16.8648 19.0752 16.8149 19.048 16.7699C19.0207 16.7248 18.9849 16.6856 18.9426 16.6544C18.9164 16.6377 18.8883 16.6243 18.8589 16.6144C18.8895 16.6255 18.9214 16.6328 18.9538 16.6364C19.0443 16.6351 19.1317 16.6031 19.2018 16.5456V16.5536L19.2445 16.5108L19.2493 16.506L19.7434 16.012H19.7386C19.7758 15.9797 19.8066 15.9406 19.8293 15.8968C20.0349 15.4816 20.2071 15.0508 20.3445 14.6084C20.375 14.5073 20.3643 14.3983 20.3147 14.3051C20.2651 14.2118 20.1806 14.142 20.0797 14.1108Z" fill="#443E3E"/>
</g>
<path opacity="0.15" d="M15.83 14.8748L13.0424 12.5948C13.1458 12.4165 13.201 12.2145 13.2024 12.0084C13.2014 11.7611 13.1239 11.5202 12.9807 11.3185C12.8375 11.1169 12.6356 10.9644 12.4024 10.882V5.60199C12.4029 5.52407 12.3804 5.44774 12.3378 5.38246C12.2952 5.31718 12.2344 5.26582 12.1629 5.23484C12.0914 5.2039 12.0123 5.19457 11.9356 5.20817C11.8588 5.22172 11.7877 5.25756 11.7312 5.31121V5.30919L11.7236 5.31681L11.718 5.32278L11.2444 5.81281L11.2496 5.81681C11.1894 5.85089 11.1392 5.90022 11.1042 5.95985C11.069 6.01942 11.0502 6.08721 11.0496 6.15638V11.2836L10.6896 11.6436C10.6281 11.6941 10.5717 11.7505 10.5212 11.812L10.5112 11.822H10.5144C10.3447 12.0316 10.2519 12.2931 10.2516 12.5628C10.2516 12.8811 10.378 13.1863 10.6031 13.4113C10.8281 13.6364 11.1333 13.7628 11.4516 13.7628C11.5977 13.7619 11.7424 13.7341 11.8784 13.6808L14.7732 16.0476C14.8462 16.1092 14.9395 16.1412 15.0349 16.1376C15.1302 16.1338 15.2208 16.0946 15.2888 16.0276L15.2912 16.0352L15.3356 15.9912L15.8744 15.4548H15.8684C15.8748 15.448 15.884 15.4452 15.89 15.438C15.9231 15.3971 15.9478 15.3501 15.9627 15.2996C15.9776 15.2492 15.9824 15.1963 15.9768 15.144C15.9712 15.0916 15.9554 15.0409 15.9302 14.9947C15.905 14.9485 15.871 14.9078 15.83 14.8748Z" fill="#443E3E"/>
<path d="M18.8 7.59998H15.6C15.4939 7.59998 15.3922 7.5578 15.3172 7.48281C15.2421 7.40777 15.2 7.30606 15.2 7.19998C15.2 7.09385 15.2421 6.99214 15.3172 6.9171C15.3922 6.84212 15.4939 6.79998 15.6 6.79998H18.4L18.3916 3.91196C18.3916 3.80588 18.4338 3.70413 18.5088 3.62912C18.5838 3.55411 18.6855 3.51196 18.7916 3.51196C18.8977 3.51196 18.9994 3.55411 19.0745 3.62912C19.1495 3.70413 19.1916 3.80588 19.1916 3.91196L19.2 7.19998C19.2 7.30606 19.1579 7.40777 19.0828 7.48281C19.0079 7.5578 18.9061 7.59998 18.8 7.59998Z" fill="#443E3E"/>
<path d="M11.946 20.8C10.4425 20.7999 8.96425 20.4146 7.65204 19.6809C6.33977 18.9471 5.23743 17.8895 4.45007 16.6087C3.66271 15.3279 3.21661 13.8668 3.15432 12.3647C3.09202 10.8625 3.41561 9.36945 4.09422 8.02791C4.77284 6.68636 5.78383 5.54103 7.03081 4.70119C8.27775 3.8613 9.71908 3.35491 11.2174 3.2303C12.7156 3.10568 14.2208 3.36699 15.5894 3.98931C16.958 4.61164 18.1443 5.5742 19.0352 6.78524C19.0685 6.82732 19.0929 6.87569 19.1071 6.92743C19.1213 6.97916 19.1249 7.03324 19.1178 7.08641C19.1107 7.13964 19.0929 7.19084 19.0656 7.23703C19.0382 7.28316 19.0019 7.32337 18.9587 7.35521C18.9155 7.38705 18.8663 7.40988 18.8142 7.42236C18.762 7.43479 18.7078 7.4366 18.6549 7.42769C18.602 7.41873 18.5514 7.39927 18.5062 7.37041C18.4609 7.34156 18.422 7.30385 18.3916 7.25964C17.5817 6.15868 16.5033 5.28353 15.2592 4.71772C14.0151 4.15193 12.6467 3.9143 11.2847 4.02751C9.92265 4.14071 8.61231 4.60097 7.47865 5.36444C6.345 6.12785 5.42585 7.16903 4.80889 8.38855C4.19189 9.60812 3.89763 10.9654 3.95417 12.3309C4.01071 13.6965 4.41616 15.0249 5.13183 16.1892C5.84756 17.3536 6.84959 18.3152 8.04249 18.9823C9.23535 19.6494 10.5792 19.9998 11.946 20C12.0521 20 12.1538 20.0421 12.2288 20.1172C12.3038 20.1922 12.346 20.2939 12.346 20.4C12.346 20.5061 12.3038 20.6079 12.2288 20.6828C12.1538 20.7579 12.0521 20.8 11.946 20.8ZM13.812 20.5916C13.7134 20.5919 13.6182 20.5556 13.5447 20.49C13.4711 20.4243 13.4245 20.3338 13.4135 20.2359C13.4027 20.1379 13.4283 20.0394 13.4856 19.9592C13.5429 19.8789 13.6278 19.8227 13.724 19.8012C14.4471 19.6372 15.1438 19.3728 15.7936 19.0156C15.8397 18.9885 15.8908 18.9711 15.9438 18.9641C15.9968 18.9571 16.0507 18.9608 16.1022 18.975C16.1538 18.9892 16.202 19.0136 16.2439 19.0467C16.2859 19.0799 16.3208 19.1211 16.3465 19.168C16.3723 19.2148 16.3884 19.2664 16.3939 19.3195C16.3993 19.3728 16.3941 19.4265 16.3785 19.4776C16.3629 19.5288 16.3371 19.5762 16.3028 19.6172C16.2685 19.6583 16.2263 19.692 16.1788 19.7164C15.463 20.11 14.6955 20.4012 13.8988 20.5816C13.8703 20.5881 13.8412 20.5914 13.812 20.5916ZM17.248 18.916C17.1654 18.9161 17.0848 18.8906 17.0173 18.8431C16.9497 18.7955 16.8985 18.7282 16.8708 18.6504C16.8431 18.5726 16.8401 18.4881 16.8623 18.4085C16.8845 18.329 16.9308 18.2582 16.9948 18.206C17.5201 17.7784 17.9893 17.2861 18.3912 16.7408C18.4215 16.6966 18.4605 16.6589 18.5057 16.63C18.551 16.6011 18.6015 16.5817 18.6545 16.5728C18.7074 16.5639 18.7615 16.5657 18.8137 16.5781C18.866 16.5906 18.9151 16.6133 18.9583 16.6452C19.0015 16.677 19.0379 16.7172 19.0652 16.7634C19.0925 16.8096 19.1103 16.8608 19.1174 16.914C19.1246 16.9672 19.1209 17.0212 19.1067 17.073C19.0925 17.1248 19.068 17.1731 19.0348 17.2152C18.5931 17.8147 18.0774 18.3561 17.5 18.8264C17.4287 18.8843 17.3398 18.916 17.248 18.916ZM19.48 16.1224C19.4118 16.1227 19.3447 16.1055 19.285 16.0725C19.2253 16.0396 19.175 15.9919 19.1389 15.934C19.1029 15.8761 19.0822 15.81 19.0789 15.7419C19.0756 15.6738 19.0897 15.6059 19.12 15.5448C19.307 15.1677 19.4636 14.7764 19.5884 14.3744C19.604 14.3242 19.6293 14.2777 19.6629 14.2373C19.6965 14.1969 19.7378 14.1635 19.7843 14.1391C19.8308 14.1147 19.8816 14.0996 19.934 14.0948C19.9863 14.09 20.039 14.0956 20.0892 14.1112C20.1393 14.1268 20.186 14.1521 20.2263 14.1858C20.2667 14.2194 20.3001 14.2606 20.3245 14.3071C20.3489 14.3536 20.364 14.4045 20.3688 14.4568C20.3735 14.5091 20.368 14.5618 20.3524 14.612C20.215 15.0544 20.0427 15.4852 19.8372 15.9004C19.8041 15.9669 19.7532 16.0229 19.6901 16.0621C19.627 16.1013 19.5543 16.1223 19.48 16.1224Z" fill="#443E3E"/>
<path d="M12 12.8C12.4418 12.8 12.8 12.4418 12.8 12C12.8 11.5582 12.4418 11.2 12 11.2C11.5582 11.2 11.2 11.5582 11.2 12C11.2 12.4418 11.5582 12.8 12 12.8Z" fill="#443E3E"/>
<path d="M12 13.2C11.7627 13.2 11.5307 13.1296 11.3333 12.9978C11.136 12.8659 10.9822 12.6785 10.8914 12.4592C10.8005 12.2399 10.7767 11.9987 10.823 11.7659C10.8694 11.5331 10.9836 11.3193 11.1515 11.1515C11.3193 10.9836 11.5331 10.8694 11.7659 10.823C11.9987 10.7767 12.2399 10.8005 12.4592 10.8914C12.6785 10.9822 12.8659 11.136 12.9978 11.3333C13.1296 11.5307 13.2 11.7627 13.2 12C13.2 12.3182 13.0735 12.6235 12.8485 12.8485C12.6235 13.0735 12.3182 13.2 12 13.2ZM12 11.6C11.9209 11.6 11.8436 11.6235 11.7778 11.6674C11.712 11.7114 11.6607 11.7738 11.6304 11.8469C11.6002 11.92 11.5923 12.0004 11.6077 12.078C11.6231 12.1556 11.6612 12.2269 11.7172 12.2828C11.7731 12.3388 11.8444 12.3769 11.922 12.3923C11.9996 12.4077 12.08 12.3998 12.1531 12.3695C12.2262 12.3392 12.2886 12.288 12.3326 12.2222C12.3765 12.1564 12.4 12.0791 12.4 12C12.4 11.8939 12.3579 11.7922 12.2828 11.7172C12.2078 11.6421 12.1061 11.6 12 11.6Z" fill="#443E3E"/>
<path d="M15.5748 15.5752C15.4826 15.5751 15.3933 15.5432 15.322 15.4848L12.2236 12.9516C12.1414 12.8845 12.0893 12.7874 12.0787 12.6819C12.0681 12.5763 12.0998 12.4708 12.167 12.3886C12.2341 12.3065 12.3312 12.2544 12.4368 12.2437C12.5424 12.2331 12.6478 12.2649 12.73 12.332L15.8284 14.8652C15.8923 14.9175 15.9385 14.9882 15.9605 15.0678C15.9826 15.1473 15.9796 15.2317 15.9518 15.3094C15.924 15.3871 15.8729 15.4544 15.8054 15.5019C15.7379 15.5494 15.6573 15.5749 15.5748 15.5748V15.5752ZM12 11.6C11.8939 11.6 11.7922 11.5579 11.7172 11.4829C11.6421 11.4078 11.6 11.3061 11.6 11.2V5.5936C11.6 5.48752 11.6421 5.38582 11.7172 5.31078C11.7922 5.23579 11.8939 5.1936 12 5.1936C12.1061 5.1936 12.2078 5.23579 12.2828 5.31078C12.3579 5.38582 12.4 5.48752 12.4 5.5936V11.2C12.4 11.3061 12.3579 11.4078 12.2828 11.4829C12.2078 11.5579 12.1061 11.6 12 11.6Z" fill="#443E3E"/>
</svg>
