<svg width="24" height="24" viewBox="0 0 24 24" fill="none" xmlns="http://www.w3.org/2000/svg">
<path d="M19.0298 19.6002C17.2178 19.2402 16.1832 18.8266 15.5891 18.4082L11.9984 21.5969L8.40931 18.4082C7.81676 18.8266 6.78258 19.2405 4.96862 19.6002C5.08728e-07 20.5861 0 24 0 24H24C24 24 24 20.5861 19.0298 19.6002Z" fill="#CCCCCC"/>
<path d="M17.1986 10.3733V9.20052C15.9984 8.80054 14.3981 6.40063 14.3981 6.40063H9.59712C9.59712 6.40063 7.9968 8.80054 6.79656 9.20052V10.3733C6.79656 12.95 7.6603 15.2295 9.20461 16.5058L9.19704 16.5114V16.8002C9.23203 17.1159 9.17597 17.4351 9.03546 17.72C8.89495 18.0049 8.67587 18.2437 8.40408 18.4081L11.9976 21.6L15.5911 18.4089C15.3192 18.2444 15.1 18.0055 14.9595 17.7204C14.819 17.4354 14.763 17.116 14.7982 16.8002V16.5114L14.7905 16.5054C16.3345 15.2295 17.1986 12.95 17.1986 10.3733Z" fill="white"/>
<path d="M14.3982 6.40055C14.3982 6.40055 15.9986 8.80046 17.1988 9.20044V10.3732C17.1988 12.9499 16.335 15.2294 14.7907 16.5057L14.7983 16.5117V16.8001C14.7983 16.8001 19.9994 16.8001 21.5997 15.2002C19.0731 13.6003 19.1992 9.44043 19.1992 9.44043V8.00049C19.2104 6.80736 18.9184 5.63093 18.3504 4.58153C17.7825 3.53209 16.9573 2.64408 15.9521 2.00073H15.9385C15.7421 3.20068 15.1984 6.40055 15.1984 6.40055H14.3982ZM9.59088 6.40055C9.59088 6.40055 7.99056 8.80046 6.79032 9.20044V10.3732C6.79032 12.9499 7.65406 15.2294 9.198 16.5057L9.1908 16.5117V16.8001C9.1908 16.8001 3.98975 16.8001 2.38943 15.2002C4.91592 13.6003 4.78992 9.44043 4.78992 9.44043V8.00049C4.77866 6.80736 5.07072 5.63093 5.63867 4.58153C6.20663 3.53209 7.03186 2.64408 8.03697 2.00073H8.05057C8.24661 3.20068 8.79029 6.40055 8.79029 6.40055H9.59088Z" fill="#443E3E"/>
<path d="M17.4225 19.2099C16.7736 19.0418 16.1556 18.7718 15.5913 18.4099L12.0006 21.5986L15.1985 24.0001L17.4357 19.2163L17.4225 19.2099ZM6.57833 19.2099C7.22726 19.0418 7.8453 18.7718 8.40952 18.4099L12.0002 21.5986L8.80197 24.0001L6.56473 19.2163L6.57833 19.2099Z" fill="#443E3E"/>
<path d="M8.7968 6.40071H15.1981C15.1981 6.40071 15.9058 2.23045 15.9982 1.60087C16.0357 1.40149 16.0277 1.19624 15.975 1.00034C15.9223 0.804448 15.8262 0.62293 15.6937 0.469256C15.5612 0.315583 15.3958 0.193689 15.2098 0.112615C15.0239 0.0315463 14.822 -0.00662284 14.6192 0.000939515H9.29813C8.53477 0.000939515 7.89144 0.520918 7.99664 1.60087C8.10189 2.68083 8.7968 6.40071 8.7968 6.40071Z" fill="#CCCCCC"/>
<path d="M13.8006 2.60083H12.6003V1.40088H11.4001V2.60083H10.1999V3.80078H11.4001V5.00073H12.6003V3.80078H13.8006V2.60083Z" fill="#443E3E"/>
<path opacity="0.15" d="M11.9976 17.7115V0.000976562H9.29866C8.53493 0.000976562 7.8916 0.520955 7.9968 1.60091C8.0072 1.70851 8.0248 1.8477 8.04561 2.0009H8.03681C7.03175 2.64429 6.20663 3.53233 5.63873 4.58175C5.07088 5.63115 4.77888 6.80758 4.79018 8.00065V9.44059C4.79018 9.44059 4.91618 13.6004 2.38888 15.2004C3.9892 16.8003 9.19026 16.8003 9.19026 16.8003H9.19704C9.23203 17.116 9.17597 17.4351 9.03546 17.72C8.89495 18.0049 8.67592 18.2438 8.40408 18.4082L8.40648 18.4106C7.81319 18.8282 6.77938 19.2402 4.97059 19.6002C0 20.5862 0 24 0 24H7.30749L14.7982 16.5115C14.7982 16.5115 13.3731 17.7115 11.9976 17.7115Z" fill="#999999"/>
</svg>
