<svg width="22" height="24" viewBox="0 0 22 24" fill="none" xmlns="http://www.w3.org/2000/svg">
<path d="M9.68937 24C11.7575 24 13.434 22.3211 13.434 20.25C13.434 18.1789 11.7575 16.5 9.68937 16.5C7.62124 16.5 5.94469 18.1789 5.94469 20.25C5.94469 22.3211 7.62124 24 9.68937 24Z" fill="#5C5C5C"/>
<path d="M13.434 20.25C13.434 22.3177 11.7541 24 9.68936 24V16.5C11.7541 16.5 13.434 18.1823 13.434 20.25Z" fill="black"/>
<path d="M19.3787 18.6591C19.3787 19.9242 18.3508 20.9531 17.0879 20.9531H2.29081C1.02792 20.9531 0 19.9242 0 18.6591C0 18.0464 0.238255 17.4703 0.670766 17.0367C1.44545 16.2609 1.87234 15.2297 1.87234 14.1323V10.875C1.87234 7.32328 4.24694 4.31719 7.48936 3.36281V2.20312C7.48936 0.988125 8.47609 0 9.68936 0C10.9026 0 11.8894 0.988125 11.8894 2.20312V3.36281C15.1318 4.31719 17.5064 7.32328 17.5064 10.875V14.1323C17.5064 15.2297 17.9333 16.2609 18.708 17.0367C19.1405 17.4703 19.3787 18.0464 19.3787 18.6591Z" fill="#CCCCCC"/>
<path d="M19.3787 18.6591C19.3787 19.9242 18.3508 20.9531 17.0879 20.9531H9.68936V0C10.9026 0 11.8894 0.988125 11.8894 2.20312V3.36281C15.1318 4.31719 17.5064 7.32328 17.5064 10.875V14.1323C17.5064 15.2297 17.9333 16.2609 18.708 17.0367C19.1405 17.4703 19.3787 18.0464 19.3787 18.6591Z" fill="#999999"/>
</svg>
